<?xml version="1.0" encoding="UTF-8" standalone="no"?>
<!-- Created with Inkscape (http://www.inkscape.org/) -->

<svg
   width="220.09349mm"
   height="178.90015mm"
   viewBox="0 0 220.09349 178.90015"
   version="1.1"
   id="svg1"
   xml:space="preserve"
   xmlns="http://www.w3.org/2000/svg"
   xmlns:svg="http://www.w3.org/2000/svg"><defs
     id="defs1" /><g
     id="layer1"
     transform="translate(5.2097528,-59.108956)"><path
       style="fill:#e67211;fill-opacity:1"
       d="m 4.9122165,237.89825 c -2.6355619,-0.36125 -5.14034761,-1.65386 -6.9966576,-3.61066 -1.0519488,-1.10889 -2.6421868,-3.98684 -2.914618,-5.27476 -0.098487,-0.46559 -0.1892674,-36.66341 -0.2017345,-80.43959 -0.024338,-85.459967 -0.094441,-80.984837 1.3125879,-83.791986 0.8702589,-1.736246 3.06758986,-4.017969 4.69884121,-4.879308 L 2.1340916,59.20313 103.07263,59.127518 c 71.91351,-0.05387 101.42459,0.0073 102.62887,0.212571 0.92968,0.1585 2.28905,0.59158 3.02083,0.962399 1.74173,0.882602 4.05391,3.089544 4.81929,4.599944 1.43462,2.831085 1.35352,-2.311978 1.3348,84.655898 l -0.0173,80.56562 -0.74986,1.4242 c -1.59641,3.03201 -4.29987,5.07726 -7.87227,5.95561 -1.58844,0.39055 -10.53772,0.43427 -100.93854,0.49312 -54.557563,0.0355 -99.7313498,-0.009 -100.3861935,-0.0986 z M 206.72846,233.7271 c 1.77663,-0.80293 3.82992,-3.00228 4.26823,-4.57183 0.17632,-0.63139 0.32299,-2.10048 0.32594,-3.26465 0.0541,-21.38961 0.0101,-109.5783 -0.0596,-119.26093 -0.0752,-10.450493 -0.13309,-11.842122 -0.49353,-11.857297 -0.22461,-0.0095 -1.21342,-0.01861 -2.19736,-0.02033 -1.15963,-0.002 -1.72972,-0.09904 -1.62051,-0.275736 0.11013,-0.178193 -0.0492,-0.201045 -0.45998,-0.06599 -0.34564,0.113634 -47.26125,0.215686 -104.25689,0.226783 -56.995652,0.0111 -103.6970436,0.08876 -103.7808735,0.172579 -0.107275,0.107265 -0.2020095,37.752601 -0.1158028,46.017381 0.00228,0.21828 -0.00416,5.21891 -0.014305,11.1125 -0.079084,45.94544 0.013379,73.33623 0.2526142,74.83378 0.62987787,3.94288 3.1421259,6.73581 6.6943071,7.44223 0.6031764,0.11996 45.864182,0.20091 100.58001,0.1799 l 99.48333,-0.0382 z M 43.805964,208.68152 c -6.834573,-0.89624 -11.712,-3.00455 -15.802029,-6.83057 -4.252186,-3.97772 -6.305828,-7.94237 -6.987573,-13.48985 -1.066439,-8.6778 2.649248,-17.04986 9.590991,-21.6101 3.061792,-2.01139 5.409186,-2.96422 8.645448,-3.50929 1.347343,-0.22693 1.633589,-0.35995 1.502102,-0.69801 -0.428169,-1.10087 -0.734873,-3.57749 -0.739807,-5.97391 -0.0066,-3.19262 0.791005,-6.10801 2.668668,-9.75478 0.947142,-1.83952 1.727599,-2.8732 3.612571,-4.78466 3.605728,-3.6564 7.526444,-5.67432 12.620714,-6.49566 3.034207,-0.48919 8.781812,0.0106 10.532396,0.91586 l 0.702033,0.36303 0.902994,-2.95418 c 1.565514,-5.12166 2.950732,-8.19839 4.844128,-10.7594 3.587738,-4.85277 7.702581,-8.27536 13.283404,-11.04872 2.218982,-1.10271 7.250268,-2.62714 9.899746,-2.99954 2.5018,-0.35163 8.98693,-0.19026 11.5315,0.28695 10.69917,2.00652 19.81609,8.69354 24.44484,17.92964 0.60198,1.20117 1.26451,2.68946 1.47229,3.30729 0.62421,1.85612 1.46725,5.17637 1.46725,5.77871 0,0.49335 0.10779,0.54368 0.85989,0.40142 0.47294,-0.0894 2.41855,-0.23819 4.32357,-0.33053 4.4991,-0.21807 6.97473,0.24807 10.91075,2.05442 3.40266,1.56158 6.79231,4.35814 8.7746,7.2393 0.86448,1.25648 2.57724,4.69847 2.77421,5.57509 1.28833,5.73385 1.39568,7.01886 0.79439,9.50909 -0.21082,0.87313 -0.38518,1.71932 -0.38745,1.88043 -0.003,0.17767 0.80994,0.34872 2.0649,0.43473 3.35418,0.2299 7.62369,1.89817 11.21279,4.38129 2.49204,1.72411 5.49643,5.75831 6.94188,9.32134 1.39022,3.42686 1.84453,6.13471 1.6405,9.77791 -0.34496,6.15976 -2.03199,10.263 -5.79676,14.09904 -3.6468,3.71584 -8.96166,6.44815 -15.1414,7.784 -1.96791,0.4254 -6.28178,0.46008 -61.38333,0.49342 -45.956241,0.0278 -59.831169,-0.0382 -61.780206,-0.29376 z m 119.591656,-3.3031 c 3.69143,-0.36068 5.78884,-0.78925 6.4823,-1.32453 0.14552,-0.11233 0.74083,-0.3347 1.32291,-0.49415 1.8513,-0.50713 5.36735,-2.68522 8.039,-4.97992 5.68502,-4.88291 6.88186,-15.23627 2.63762,-22.81698 -2.36598,-4.22591 -6.46638,-7.33646 -11.51559,-8.73566 -1.94588,-0.53924 -5.18297,-0.73762 -6.636,-0.40668 -0.60486,0.13775 -1.04663,0.0739 -1.48743,-0.21489 -0.98756,-0.64708 -1.00684,-1.60755 -0.072,-3.58654 0.79894,-1.6913 0.82597,-1.86479 0.78791,-5.05865 -0.0345,-2.89549 -0.13561,-3.59128 -0.81211,-5.58802 -0.94548,-2.7907 -1.77327,-4.23628 -3.52068,-6.14822 -3.89838,-4.26545 -9.65683,-6.57517 -15.33427,-6.15058 -3.80412,0.28449 -4.60424,0.42891 -5.3471,0.96515 -0.86324,0.62315 -1.31182,0.64498 -2.33895,0.11383 -0.78413,-0.40549 -0.87004,-0.63563 -0.79185,-2.12147 0.0487,-0.92556 -0.61057,-4.05313 -1.3199,-6.26152 -2.91077,-9.06223 -11.32402,-16.66517 -21.39608,-19.33536 -2.9,-0.76882 -3.33288,-0.81303 -7.83216,-0.79996 -5.40941,0.0157 -7.679604,0.42087 -11.728888,2.09321 -7.419693,3.0643 -12.737096,7.81412 -15.812535,14.12469 -0.836719,1.71688 -3.122146,8.56051 -3.447306,10.32283 -0.214022,1.15997 -1.059108,2.11667 -1.869728,2.11667 -0.340641,0 -1.252548,-0.35736 -2.026461,-0.79413 -2.031051,-1.14625 -6.072052,-1.72981 -9.168202,-1.32397 -4.809774,0.63047 -7.989608,2.20083 -11.515987,5.68718 -2.394266,2.3671 -3.727346,4.63795 -4.625679,7.8797 -0.913973,3.29818 -0.556503,8.85006 0.683849,10.62092 0.549282,0.78421 0.493929,2.72105 -0.08645,3.02501 -0.254661,0.13337 -1.534583,0.29803 -2.84427,0.36589 -2.521013,0.13064 -4.515588,0.69049 -7.540625,2.11654 -1.265188,0.59644 -2.404664,1.48093 -4.310702,3.3461 -2.901334,2.83913 -3.577754,3.87892 -4.754756,7.30905 -0.742071,2.1626 -0.817203,2.68492 -0.818269,5.68854 -0.0021,5.8845 1.198382,9.1317 4.856644,13.13693 2.627841,2.87708 6.299051,5.06663 10.342696,6.1685 4.599907,1.25345 4.713891,1.25568 64.931259,1.26833 31.14145,0.007 57.63286,-0.087 58.86978,-0.20784 z m -61.11874,-16.04621 c -0.8746,-0.0883 -1.69432,-0.26006 -4.497918,-0.94233 -0.654844,-0.15936 -1.937748,-0.62727 -2.850897,-1.03981 C 94.016916,186.93753 93.204327,186.6 93.124312,186.6 c -0.422798,0 -3.828764,-2.47361 -4.781669,-3.47273 -3.302637,-3.4628 -3.949989,-6.36356 -1.605737,-7.19526 0.906258,-0.32152 1.736471,0.28622 2.48819,1.82143 1.404593,2.86855 4.889521,5.40097 9.22728,6.70525 3.728844,1.1212 9.804934,1.07033 13.364234,-0.11188 2.62144,-0.8707 6.37319,-3.92841 7.45003,-6.07185 0.82663,-1.64538 1.23702,-1.99371 2.34893,-1.99371 1.51527,0 2.02618,0.72077 1.85522,2.61726 -0.1414,1.56848 -3.28214,5.23879 -6.06165,7.08373 -3.95413,2.62459 -9.70492,3.89787 -15.13026,3.34997 z M 83.885418,165.31748 c -4.065707,-1.7119 -4.030226,-9.13543 0.05367,-11.22948 0.817888,-0.41938 2.505729,-0.36734 3.455641,0.10653 2.31397,1.15436 3.582025,4.97697 2.559262,7.71501 -0.26191,0.70116 -0.644368,1.54063 -0.849908,1.86549 -0.920732,1.45523 -3.567736,2.23759 -5.218665,1.54245 z m 38.292522,0.12804 c -2.25416,-0.55496 -3.49633,-2.61759 -3.49241,-5.79919 0.002,-1.76406 0.10427,-2.19572 0.81086,-3.42787 1.58042,-2.75593 4.5393,-3.20995 6.78749,-1.0415 1.87478,1.80829 2.24849,6.01624 0.72553,8.16952 -1.36722,1.93308 -2.86408,2.58339 -4.83147,2.09904 z m 88.77268,-74.583033 c 0.40594,-0.05205 0.43953,-18.548514 0.0385,-21.196875 -0.44628,-2.947091 -1.67726,-4.461771 -4.869,-5.99112 l -1.57977,-0.756958 -100.27708,-0.0051 -100.2770751,-0.0051 -1.0583333,0.654805 c -1.3325517,0.824468 -3.30676787,2.624462 -3.30892153,3.016913 -8.9652e-4,0.163368 -0.18397181,0.646702 -0.40683399,1.074076 -0.22286218,0.427374 -0.51849148,1.282555 -0.65695398,1.900403 -0.3409863,1.521549 -0.3556545,20.697978 -0.016145,21.107062 0.2001897,0.241213 24.7696999,0.30571 106.1736129,0.278711 58.25223,-0.01932 106.05934,-0.05387 106.23802,-0.07678 z m -17.64134,-8.461654 c -4.4801,-1.68843 -5.24606,-7.853327 -1.30256,-10.483801 3.12271,-2.082976 7.78181,-0.893267 9.26204,2.365078 0.59815,1.316673 0.63858,3.772954 0.0839,5.100385 -1.20574,2.885759 -4.80821,4.237603 -8.04342,3.018338 z m 4.39234,-3.795535 c 0.31837,-0.351791 0.48871,-0.943237 0.48871,-1.69685 0,-1.422873 -0.87866,-2.431486 -2.3223,-2.665757 -0.85878,-0.139359 -1.07874,-0.04977 -1.90401,0.7755 -1.08385,1.083853 -1.19904,2.001725 -0.41299,3.290907 0.88527,1.451889 2.97007,1.600667 4.15059,0.2962 z m -21.02993,4.015443 c -2.59726,-0.614367 -4.84177,-4.040824 -4.39704,-6.712515 0.50119,-3.010876 2.53572,-4.840603 5.70162,-5.127677 1.89596,-0.171919 3.3993,0.369683 4.82204,1.737212 1.19451,1.148157 1.66,2.144799 1.89758,4.062814 0.50186,4.051555 -3.54691,7.099242 -8.0242,6.040166 z m 3.48791,-3.707351 c 0.54088,-0.474892 0.95226,-1.114245 1.0218,-1.588016 0.37124,-2.529421 -2.78812,-4.186728 -4.57496,-2.39989 -1.37927,1.379267 -0.91696,3.605707 0.91419,4.402667 1.21878,0.530442 1.63738,0.464652 2.63897,-0.414761 z m -21.39218,3.470828 c -2.11768,-0.97546 -3.25294,-2.572533 -3.49486,-4.916532 -0.37365,-3.620294 2.29765,-6.54354 5.96355,-6.526006 2.07297,0.0099 3.54068,0.643563 4.79724,2.071101 1.63117,1.853104 2.03539,5.100296 0.86643,6.960139 -1.59368,2.535567 -5.40757,3.666411 -8.13236,2.411298 z m 4.02095,-3.271194 c 1.83218,-1.241302 1.56659,-3.491427 -0.53415,-4.525228 -0.85039,-0.418492 -1.11281,-0.442106 -1.79105,-0.16117 -0.93949,0.389151 -1.56676,1.473779 -1.55505,2.688884 0.01,1.031594 0.36693,1.560418 1.4468,2.143241 1.064,0.57426 1.40047,0.55411 2.43345,-0.145727 z"
       id="path1" /></g></svg>
