<?xml version="1.0" encoding="UTF-8" standalone="no"?>
<!-- Created with Inkscape (http://www.inkscape.org/) -->

<svg
   width="86.539146mm"
   height="77.877724mm"
   viewBox="0 0 86.539146 77.877724"
   version="1.1"
   id="svg1"
   xml:space="preserve"
   xmlns="http://www.w3.org/2000/svg"
   xmlns:svg="http://www.w3.org/2000/svg"><defs
     id="defs1" /><g
     id="layer1"
     transform="translate(-58.482625,-104.36132)"><path
       style="fill:#000000;stroke-width:0.43496"
       d="m 109.36209,182.05002 c -0.50382,-0.24833 -0.99055,-0.89621 -1.17133,-1.55914 -0.14642,-0.53691 -0.11938,-2.39437 0.0456,-3.12977 0.34359,-1.53199 1.09887,-4.17163 1.39947,-4.89107 0.2286,-0.54711 0.49057,-0.81671 0.79361,-0.81671 0.51578,0 0.82902,0.66857 1.45585,3.10725 0.18709,0.7279 0.39353,1.53061 0.45875,1.78379 0.24279,0.9425 0.32488,1.43013 0.43596,2.58937 0.1303,1.3598 -0.30238,2.33972 -1.25568,2.84383 -0.60039,0.3175 -1.59726,0.3509 -2.16218,0.0725 z m 1.70911,-1.52643 c 0.34952,-0.34951 0.38232,-0.48844 0.34177,-1.44739 -0.0381,-0.901 -0.89971,-4.39778 -1.043,-4.23292 -0.13874,0.15962 -0.67102,2.2506 -0.79923,3.13963 -0.18373,1.2741 -0.17305,1.97948 0.0361,2.38397 0.314,0.60719 0.94621,0.67485 1.46434,0.15671 z m -20.281676,0.10383 c -0.553704,-0.29252 -1.076687,-0.94029 -1.245269,-1.54241 -0.251977,-0.89997 0.0026,-2.79292 0.736479,-5.47526 0.164506,-0.60131 0.349317,-1.19687 0.410698,-1.32346 0.06138,-0.12659 0.133777,-0.35963 0.160888,-0.51787 0.05549,-0.32388 0.242464,-0.8547 0.43235,-1.22746 0.151706,-0.2978 0.515719,-0.41486 0.806364,-0.25931 0.20688,0.11072 0.530599,0.63563 0.622219,1.00892 0.08487,0.34578 0.516664,1.90656 0.68936,2.4918 0.09339,0.31648 0.193571,0.69953 0.222626,0.85121 0.02905,0.15169 0.103694,0.43652 0.165872,0.63296 0.06217,0.19644 0.145481,0.59021 0.185132,0.87504 0.03963,0.28483 0.119062,0.76727 0.176481,1.0721 0.133946,0.71111 -0.02579,1.8544 -0.347107,2.48421 -0.361896,0.70937 -1.12974,1.16359 -1.955925,1.15701 -0.401255,-0.003 -0.795903,-0.0879 -1.060168,-0.22748 z m 1.505124,-1.31633 c 0.625046,-0.32322 0.68755,-1.63245 0.173292,-3.62984 -0.105926,-0.41143 -0.203478,-0.79984 -0.216784,-0.86313 -0.01331,-0.0633 -0.117865,-0.42563 -0.23236,-0.80518 l -0.208168,-0.69009 -0.27282,0.92026 c -0.306755,1.03473 -0.488295,1.85134 -0.562769,2.53143 -0.02771,0.25318 -0.07921,0.7223 -0.114399,1.04248 -0.140074,1.27432 0.523005,1.96517 1.434008,1.49407 z m 8.697922,-8.62645 c -0.78505,-0.35042 -1.43854,-1.4835 -1.43854,-2.49429 0,-0.62924 0.400424,-2.43153 0.93092,-4.19005 0.19095,-0.63296 0.42743,-1.43567 0.52552,-1.78379 0.38734,-1.37472 0.54723,-1.61117 1.08948,-1.61117 0.28552,0 0.37215,0.07 0.51766,0.41824 0.23548,0.56361 0.60708,1.76835 0.54542,1.76835 -0.0272,0 0.005,0.10242 0.0723,0.2276 0.21732,0.40606 0.90845,3.28268 1.03675,4.31516 0.10525,0.84695 0.0956,1.10718 -0.0614,1.65484 -0.41507,1.4477 -1.95503,2.25887 -3.21806,1.69511 z m 1.60651,-1.53319 c 0.25268,-0.27251 0.29154,-0.41698 0.28631,-1.06452 -0.005,-0.60527 -0.20765,-2.00834 -0.37437,-2.59055 -0.0181,-0.0633 -0.12993,-0.46851 -0.24846,-0.90047 -0.13253,-0.48301 -0.24828,-0.72669 -0.30064,-0.63295 -0.19854,0.35544 -1.03758,3.86554 -1.01252,4.23582 0.0756,1.11661 1.00174,1.65145 1.64968,0.95267 z m 15.57442,1.22415 c -0.86219,-0.44233 -1.31011,-1.53245 -1.19752,-2.91442 0.13842,-1.699 0.13458,-1.67956 0.9339,-4.7268 0.51437,-1.9609 0.77701,-2.47429 1.26584,-2.47429 0.31436,0 0.59214,0.29871 0.75609,0.81306 0.0693,0.21742 0.16992,0.49889 0.2236,0.62549 0.10836,0.25557 0.80219,2.62592 0.86672,2.961 0.0226,0.11709 0.15105,0.6122 0.28556,1.10024 0.27915,1.01287 0.39247,2.63933 0.21619,3.10297 -0.21521,0.56605 -0.8434,1.28687 -1.33254,1.52903 -0.57975,0.28702 -1.44017,0.28008 -2.01784,-0.0163 z m 1.69461,-1.48624 c 0.2699,-0.28172 0.33618,-0.45812 0.35132,-0.93506 0.0103,-0.3233 -0.0308,-0.80145 -0.0912,-1.06254 -0.0604,-0.26109 -0.12305,-0.57829 -0.13919,-0.70488 -0.0324,-0.25385 -0.0319,-0.25211 -0.4735,-1.72625 -0.35748,-1.19326 -0.37156,-1.18253 -0.75525,0.57542 -0.12433,0.56966 -0.24448,1.11342 -0.267,1.20837 -0.14467,0.60983 -0.18444,1.93882 -0.0671,2.24391 0.31755,0.82608 0.88385,0.98357 1.44197,0.40103 z m -38.324604,0.29752 c -0.189888,-0.0927 -0.426823,-0.23595 -0.526522,-0.31835 -0.779176,-0.64398 -1.065637,-2.4154 -0.666286,-4.12019 0.06672,-0.28483 0.14273,-0.62145 0.168905,-0.74804 0.06137,-0.2968 0.373097,-1.66065 0.444446,-1.94451 0.238513,-0.9489 0.865921,-2.62023 1.073712,-2.86022 0.251399,-0.29035 0.675746,-0.25186 0.893902,0.0811 0.279841,0.42709 1.221836,3.6946 1.477907,5.12643 0.0283,0.15824 0.05962,0.28771 0.0696,0.28771 0.03189,0 0.08943,0.43662 0.175684,1.33302 0.09151,0.95104 -0.01918,1.46753 -0.4671,2.17974 -0.571857,0.90925 -1.834251,1.3787 -2.644244,0.98332 z m 1.160369,-1.40567 c 0.547463,-0.35871 0.748405,-1.25506 0.512207,-2.28483 -0.05807,-0.25318 -0.132197,-0.6157 -0.16472,-0.80558 -0.124227,-0.7253 -0.5764,-2.35921 -0.652894,-2.35921 -0.04405,0 -0.108449,0.11652 -0.143111,0.25894 -0.03466,0.14241 -0.115545,0.46609 -0.17974,0.71927 -0.307437,1.21252 -0.456733,2.3486 -0.436158,3.31897 0.0169,0.79702 0.05081,0.92786 0.290816,1.12206 0.331401,0.26816 0.406225,0.2711 0.7736,0.0304 z m -6.684364,-12.78637 c -0.885851,-0.0279 -4.27086,-0.22309 -5.581537,-0.32188 -0.348126,-0.0262 -1.021363,-0.13168 -1.496082,-0.23431 -0.474717,-0.10262 -1.096167,-0.23306 -1.380998,-0.28987 -0.494775,-0.0987 -0.784911,-0.19387 -1.553623,-0.50974 -0.189888,-0.078 -0.526506,-0.21071 -0.748041,-0.29484 -1.012413,-0.38449 -2.653613,-1.50182 -3.620468,-2.4648 -2.502903,-2.49288 -3.593516,-5.84531 -2.995918,-9.20913 0.227169,-1.27872 0.886915,-2.92667 1.604446,-4.00767 0.552269,-0.83203 1.830567,-2.20211 2.622924,-2.81125 1.388555,-1.06749 3.704286,-1.97377 5.513509,-2.15775 l 0.765287,-0.0778 -0.09668,-0.33711 c -0.310559,-1.08285 -0.339858,-3.46162 -0.05566,-4.51863 0.623685,-2.31962 1.642195,-4.08212 3.333615,-5.7687 0.830377,-0.82799 1.299706,-1.18293 2.308224,-1.74559 2.004442,-1.11832 3.508419,-1.53017 5.646993,-1.54639 1.337363,-0.0101 2.732371,0.25291 3.824974,0.72125 0.28342,0.12149 0.523584,0.20664 0.533697,0.18923 0.02423,-0.0417 0.292236,-1.31718 0.369398,-1.75792 0.147656,-0.8434 1.208672,-3.32769 1.915426,-4.48483 0.817617,-1.33866 2.512087,-3.27636 4.185322,-4.78612 2.000556,-1.80509 5.54399,-3.44117 8.692359,-4.01345 1.094602,-0.19896 1.647822,-0.22954 3.487552,-0.19276 2.47631,0.0495 3.82156,0.29797 5.7151,1.05557 3.83759,1.53539 7.31715,5.2292 8.86602,9.41195 0.35247,0.95185 0.94719,3.11886 1.06914,3.89568 l 0.0668,0.42571 0.54253,-0.23293 c 1.90057,-0.81599 4.24916,-0.95849 6.46931,-0.39252 0.66461,0.16943 1.25758,0.3562 1.31771,0.41506 0.0601,0.0589 0.19078,0.10702 0.29033,0.10702 0.0995,0 0.46265,0.18548 0.80689,0.41219 0.34423,0.22671 0.83503,0.53562 1.09066,0.68648 0.97003,0.57246 2.511,2.23091 3.35748,3.61345 0.69703,1.13846 1.62411,3.83765 1.64651,4.79379 0.0349,1.4891 -0.0193,2.2935 -0.20258,3.00939 l -0.21363,0.83435 0.29771,0.0139 c 1.66413,0.0776 2.62715,0.29434 4.09048,0.92054 0.56693,0.2426 1.30246,0.6282 1.6345,0.85689 2.47822,1.70682 4.44146,4.71706 4.81466,7.38233 0.092,0.6568 0.0901,2.71016 -0.003,3.1978 -0.40073,2.10116 -1.21467,3.86905 -2.40908,5.23253 -1.77181,2.02263 -4.13615,3.47104 -6.85482,4.19932 -1.40498,0.37637 -3.3425,0.6268 -5.48463,0.70893 -1.6494,0.0632 -52.322864,0.13118 -54.18296,0.0726 z m 49.715959,-1.68572 c 3.10149,-0.0373 5.79444,-0.0893 5.98432,-0.11563 0.18989,-0.0264 0.81134,-0.11026 1.381,-0.18646 3.17595,-0.42487 5.53235,-1.45441 7.3467,-3.20987 1.47251,-1.42471 2.16214,-2.60294 2.72231,-4.65106 0.27527,-1.00646 0.24703,-3.2016 -0.0543,-4.21999 -1.05992,-3.5823 -3.77609,-5.99358 -7.54044,-6.69403 -0.34813,-0.0648 -1.21157,-0.0914 -1.91876,-0.0592 -1.12318,0.0512 -1.30877,0.0332 -1.46732,-0.14196 -0.22671,-0.25052 -0.23136,-0.61531 -0.0132,-1.03714 0.25011,-0.48364 0.60959,-1.91877 0.69547,-2.77645 0.15585,-1.55645 -0.44431,-3.91274 -1.41598,-5.55927 -0.71585,-1.21304 -2.12452,-2.69457 -3.1985,-3.36395 -0.96317,-0.60032 -2.19863,-1.09333 -3.26615,-1.30335 -0.7493,-0.14742 -2.71885,-0.14855 -3.22551,-0.002 -1.31982,0.38212 -1.65083,0.50529 -2.08908,0.77736 -0.98648,0.61243 -1.31754,0.74724 -1.6377,0.66689 -0.38804,-0.0974 -0.47425,-0.32337 -0.64176,-1.68236 -0.16931,-1.37352 -0.19444,-1.53288 -0.28838,-1.82889 -0.042,-0.13235 -0.0985,-0.36266 -0.12555,-0.5118 -0.19837,-1.09395 -1.28533,-3.63493 -1.9649,-4.59334 -0.21328,-0.3008 -0.38779,-0.57488 -0.38779,-0.60905 0,-0.0342 -0.0516,-0.12468 -0.1146,-0.20113 -0.063,-0.0764 -0.44339,-0.55329 -0.84526,-1.05966 -0.40187,-0.50637 -1.08827,-1.23139 -1.52534,-1.61117 -0.43707,-0.37977 -0.89507,-0.78112 -1.01777,-0.89189 -0.1227,-0.11077 -0.27113,-0.2014 -0.32983,-0.2014 -0.0587,0 -0.34672,-0.17153 -0.64003,-0.38118 -0.97185,-0.69467 -3.09828,-1.44044 -4.98734,-1.74914 -0.96665,-0.15796 -1.54864,-0.18402 -2.70445,-0.12109 -0.81001,0.0441 -1.55043,0.082 -1.64537,0.0843 -0.57959,0.0138 -3.017174,0.66827 -4.085454,1.09688 -2.292671,0.91986 -3.867371,1.97686 -5.696622,3.82378 -1.658147,1.67418 -1.660617,1.67712 -2.508259,2.98943 -1.264329,1.95741 -1.940253,3.76503 -2.284951,6.1106 -0.106969,0.7279 -0.243986,1.3884 -0.304485,1.46777 -0.0605,0.0794 -0.271789,0.18655 -0.469539,0.23818 -0.29854,0.0779 -0.457191,0.033 -0.934966,-0.2649 -1.344084,-0.838 -2.48245,-1.14286 -4.258079,-1.1403 -1.532764,0.002 -2.233449,0.13302 -3.510039,0.65535 -2.860824,1.17053 -4.919738,3.38347 -5.963138,6.40923 -0.266588,0.77307 -0.297707,1.03721 -0.29828,2.53183 -5.65e-4,1.47416 0.03062,1.74921 0.267521,2.3592 0.147489,0.37978 0.313552,0.7397 0.369032,0.79983 0.149445,0.16198 0.122256,0.79804 -0.04298,1.00553 -0.147672,0.18544 -0.931438,0.36086 -1.055959,0.23634 -0.105682,-0.10568 -1.278655,-0.0296 -2.316639,0.15025 -2.437505,0.42236 -4.689377,1.9155 -6.104749,4.04785 -0.571342,0.86076 -1.180737,2.33124 -1.348216,3.25326 -0.129802,0.7146 -0.08183,2.89346 0.07831,3.55698 0.253165,1.04894 0.999695,2.5862 1.656811,3.4117 0.401502,0.50439 0.621022,0.72979 1.536426,1.57756 0.119604,0.11077 0.243887,0.20139 0.276184,0.20139 0.0323,0 0.330075,0.19078 0.661729,0.42396 0.331654,0.23317 1.017306,0.59889 1.523673,0.8127 0.506365,0.21381 1.02424,0.43704 1.150832,0.49606 0.126591,0.059 0.618572,0.18919 1.09329,0.28926 1.606517,0.33867 1.761577,0.36251 2.953512,0.454 0.559272,0.0429 1.275796,0.0983 1.592274,0.1231 0.31648,0.0248 3.294258,0.0753 6.617286,0.11227 3.323028,0.037 6.080692,0.0765 6.128146,0.0877 0.210521,0.05 35.125449,-0.0222 40.192849,-0.0831 z m -31.298647,-9.43124 c -0.831958,-0.60834 1.037815,-3.52443 3.109609,-4.84974 1.693896,-1.08357 2.783768,-1.37954 5.057308,-1.37338 1.56115,0.004 1.81429,0.0343 2.64691,0.31395 0.50637,0.1701 1.30907,0.52488 1.78379,0.78842 1.46072,0.81089 3.14125,2.71323 3.52976,3.99563 0.20779,0.68588 0.12657,0.98575 -0.31674,1.16937 -0.577,0.239 -0.89965,0.0467 -1.367,-0.81474 -0.67323,-1.24095 -1.10781,-1.77887 -1.92889,-2.38757 -1.95478,-1.44913 -4.65127,-1.88926 -6.82212,-1.11352 -1.909117,0.68221 -3.228521,1.78336 -3.960459,3.30533 -0.236001,0.49073 -0.525576,0.94387 -0.643498,1.00698 -0.303263,0.1623 -0.838394,0.14228 -1.08867,-0.0407 z m -1.64559,-9.40247 c -1.129513,-0.24247 -1.901498,-1.35645 -1.890946,-2.72867 0.01514,-1.96587 1.406196,-3.13173 2.983623,-2.50057 0.47903,0.19167 1.104564,0.99687 1.297756,1.67049 0.249019,0.86828 0.05424,2.01393 -0.461132,2.71227 -0.454011,0.61519 -1.292645,0.98314 -1.929301,0.84648 z m 17.983407,-0.17457 c -0.96105,-0.49881 -1.50256,-1.56927 -1.39977,-2.76708 0.11412,-1.32983 0.78381,-2.24514 1.81163,-2.47607 1.31654,-0.29581 2.55651,1.02563 2.56318,2.73157 0.007,1.83816 -1.62222,3.21373 -2.97504,2.51158 z"
       id="path1" /></g></svg>
